# xmcd CD database file
#
# Track frame offsets:
#	150
#	17107
#	35398
#	50952
#	71661
#	84826
#	103090
#	117631
#	130149
#	144971
#	159460
#	180348
#	193802
#	211087
#	224270
#
# Disc length: 3190 seconds
#
# Revision: 0
# Processed by: cddbd v1.5.2PL0 Copyright (c) Steve Scherf et al.
# Submitted via: CDex 1.51
#
DISCID=d60c740f
DTITLE=Susan Ottzen and Steve Mays - Harp and Light One
DYEAR=2003
DGENRE=Jazz
TTITLE0=Take The A Train
TTITLE1=Song For My Father
TTITLE2=Shortnin' Blues
TTITLE3=Sunshower
TTITLE4=Castle Kelly Blues
TTITLE5=New Blues
TTITLE6=Parker's Mood
TTITLE7=One O'Clock Jump
TTITLE8=Space Circus
TTITLE9=Things Ain't What They Used To Be
TTITLE10=Blackbird - Because - Feuilles d'Automne
TTITLE11=Satin Doll
TTITLE12=Mojave
TTITLE13=Birdsong
TTITLE14=Frenesi
EXTD=YEAR: 2003
EXTT0=
EXTT1=
EXTT2=
EXTT3=
EXTT4=
EXTT5=
EXTT6=
EXTT7=
EXTT8=
EXTT9=
EXTT10=
EXTT11=
EXTT12=
EXTT13=
EXTT14=
PLAYORDER=
